<svg width="24" height="24" viewBox="0 0 24 24" fill="none" xmlns="http://www.w3.org/2000/svg">
<path d="M21.8 10.0412H21V10.0002H12V14.0002H17.652C17.2246 15.2147 16.4181 16.2597 15.3517 16.9811C14.2852 17.7025 13.0151 18.062 11.7288 18.0068C10.4424 17.9515 9.20791 17.4843 8.20725 16.6741C7.2066 15.8639 6.49279 14.7536 6.17111 13.5069C5.84943 12.2602 5.9369 10.9431 6.42063 9.74987C6.90435 8.55665 7.75872 7.55047 8.85774 6.87971C9.95675 6.20895 11.2422 5.90913 12.5246 6.02445C13.8069 6.13977 15.0183 6.66414 15.98 7.52021L18.808 4.69221C17.0644 3.07667 14.8012 2.13674 12.4261 2.04168C10.051 1.94662 7.71998 2.70268 5.85282 4.17371C3.98566 5.64473 2.70505 7.73407 2.2416 10.0655C1.77815 12.3969 2.16231 14.8171 3.32491 16.8904C4.48751 18.9637 6.35215 20.5538 8.58305 21.3744C10.814 22.1949 13.2645 22.192 15.4935 21.3662C17.7224 20.5403 19.5833 18.9458 20.7409 16.8697C21.8986 14.7937 22.277 12.3725 21.808 10.0422L21.8 10.0412Z" fill="#E0E4EB"/>
<path d="M3.14801 7.34611L6.43501 9.75611C6.79302 8.86335 7.36086 8.07 8.09046 7.44321C8.82005 6.81641 9.68993 6.37464 10.6264 6.15527C11.563 5.93591 12.5385 5.94542 13.4706 6.18299C14.4027 6.42057 15.2638 6.87921 15.981 7.52011L18.809 4.69211C17.6865 3.64124 16.3364 2.86394 14.864 2.42087C13.3916 1.9778 11.8368 1.88094 10.3208 2.13785C8.80477 2.39476 7.36863 2.99849 6.12442 3.90193C4.88021 4.80537 3.86158 5.98409 3.14801 7.34611V7.34611Z" fill="#E0E4EB"/>
<path d="M12.002 22.0002C14.4829 21.999 16.8739 21.0718 18.707 19.4002L15.607 16.7812C14.8578 17.349 13.9853 17.7322 13.0604 17.8999C12.1354 18.0676 11.1839 18.015 10.2831 17.7464C9.3822 17.4778 8.5573 17.0008 7.87519 16.3539C7.19309 15.707 6.67298 14.9086 6.35702 14.0232L3.10202 16.5392C3.93766 18.1816 5.21123 19.561 6.78192 20.5248C8.35261 21.4885 10.1592 21.9992 12.002 22.0002Z" fill="#E0E4EB"/>
<path d="M21.8 10.041H21V10H12V14H17.652C17.2567 15.108 16.5459 16.0761 15.607 16.785V16.785L18.707 19.404C19.7582 18.4811 20.597 17.3413 21.1654 16.0631C21.7339 14.7849 22.0186 13.3988 22 12C21.9981 11.342 21.9311 10.6858 21.8 10.041Z" fill="#E0E4EB"/>
</svg>
