<svg xmlns="http://www.w3.org/2000/svg" xmlns:xlink="http://www.w3.org/1999/xlink" width="140" height="14" viewBox="0 0 140 14">
  <defs>
    <clipPath id="clip-logo">
      <rect width="140" height="14"/>
    </clipPath>
  </defs>
  <g id="logo" clip-path="url(#clip-logo)">
    <g id="Group_1523" data-name="Group 1523" transform="translate(-92.879 -89.351)">
      <rect id="Rectangle_149" data-name="Rectangle 149" width="6" height="6" rx="3" transform="translate(226 97)" fill="#3f3bec"/>
      <path id="Path_332" data-name="Path 332" d="M4.605-12.683H.879v8.165C.879-1.626,3.12.22,6.469.22s5.59-1.846,5.59-4.737v-8.165H8.332v7.752c0,1.336-.659,2.065-1.863,2.065S4.605-3.595,4.605-4.931ZM13.658,0h3.6V-12.683h-3.6Zm5.871-11.83V-9.7H18.246v2.61h1.283v4.386C19.529-.791,20.61,0,23.353,0a7.2,7.2,0,0,0,1.485-.132v-2.5a3.206,3.206,0,0,1-.615.044c-.738,0-1.09-.316-1.09-.923V-7.093h1.705V-9.7H23.133V-11.83ZM26.024,0h3.6V-9.7h-3.6Zm1.8-10.239a1.717,1.717,0,0,0,1.793-1.705,1.717,1.717,0,0,0-1.793-1.705,1.717,1.717,0,0,0-1.793,1.705A1.717,1.717,0,0,0,27.826-10.239ZM30.981,0h3.6V-5.634c0-.844.439-1.371,1.169-1.371.773,0,1.169.466,1.169,1.389V0h3.419V-5.634c0-.853.431-1.371,1.16-1.371.782,0,1.178.457,1.178,1.38V0h3.6V-6.557a3.114,3.114,0,0,0-3.19-3.34,2.932,2.932,0,0,0-2.979,2.136h-.07a2.492,2.492,0,0,0-2.7-2.136,2.835,2.835,0,0,0-2.777,2.153H34.5V-9.7H30.981ZM51.855-2.268c-.633,0-1.063-.308-1.063-.835,0-.475.387-.8,1.072-.853l1.529-.105v.633C53.394-2.716,52.655-2.268,51.855-2.268ZM50.511.141A3.168,3.168,0,0,0,53.323-1.3h.07V0h3.516V-6.636c0-1.969-1.8-3.313-4.491-3.313-2.83,0-4.588,1.31-4.676,3.384h3.217a1.141,1.141,0,0,1,1.266-.9c.677,0,1.169.352,1.169,1v.475l-2.127.132c-2.593.158-4.025,1.169-4.025,3.032A3.078,3.078,0,0,0,50.511.141ZM59.133-11.83V-9.7H57.85v2.61h1.283v4.386C59.133-.791,60.214,0,62.956,0a7.2,7.2,0,0,0,1.485-.132v-2.5a3.206,3.206,0,0,1-.615.044c-.738,0-1.09-.316-1.09-.923V-7.093h1.705V-9.7H62.736V-11.83ZM70.418-7.471A1.455,1.455,0,0,1,71.93-6.038H68.906A1.5,1.5,0,0,1,70.418-7.471Zm1.617,4.324a1.53,1.53,0,0,1-1.529.923,1.583,1.583,0,0,1-1.652-1.635v-.229h6.434v-.976a4.607,4.607,0,0,0-4.948-4.887c-3.05,0-4.957,1.978-4.957,5.15,0,3.155,1.89,5.045,5.071,5.045,2.663,0,4.491-1.3,4.79-3.393ZM91.934,0V-12.683H88.207v4.816H83.742v-4.816H80.016V0h3.727V-4.9h4.465V0Zm8.341,0V-9.721h3.34v-2.962H93.208v2.962h3.34V0Zm18.967,0V-12.683h-4.307l-2.83,7.4h-.07l-2.839-7.4h-4.307V0h3.252V-7.348h.07l2.856,7.2h2l2.856-7.2h.07V0ZM129.7-2.962h-4.975v-9.721H121V0h8.7Z" transform="translate(92 103)" fill="#242841"/>
    </g>
  </g>
</svg>
