<svg width="24" height="24" viewBox="0 0 24 24" fill="none" xmlns="http://www.w3.org/2000/svg">
<path d="M6.855 20.76H2.875V8.821H6.855V20.76ZM4.866 7.23C4.47242 7.2302 4.08761 7.11368 3.76025 6.89518C3.43288 6.67668 3.17766 6.36601 3.02686 6.00246C2.87606 5.63892 2.83645 5.23881 2.91304 4.85275C2.98963 4.46669 3.17899 4.11201 3.45715 3.83357C3.73532 3.55512 4.08981 3.36541 4.47579 3.28843C4.86177 3.21145 5.26192 3.25066 5.62562 3.4011C5.98932 3.55153 6.30024 3.80644 6.51907 4.13358C6.7379 4.46073 6.8548 4.84542 6.855 5.239C6.85513 5.50033 6.80379 5.75913 6.7039 6.00062C6.60402 6.2421 6.45755 6.46155 6.27285 6.64644C6.08815 6.83132 5.86885 6.97801 5.62746 7.07814C5.38608 7.17827 5.12733 7.22987 4.866 7.23V7.23ZM21.181 20.76H17.355V14.95C17.355 13.564 17.329 11.782 15.366 11.782C13.374 11.782 13.066 13.291 13.066 14.849V20.759H9.242V8.813H12.915V10.45H12.967C13.3439 9.83471 13.8784 9.33141 14.5153 8.99223C15.1521 8.65306 15.8681 8.49036 16.589 8.521C20.465 8.521 21.181 10.995 21.181 14.213C21.181 14.207 21.181 20.76 21.181 20.76Z" fill="#E0E4EB"/>
</svg>
