<svg width="24" height="24" viewBox="0 0 24 24" fill="none" xmlns="http://www.w3.org/2000/svg">
<path d="M15.35 5.32H17.75C17.8773 5.32 17.9994 5.26943 18.0894 5.17941C18.1794 5.08939 18.23 4.9673 18.23 4.84V1.606C18.2303 1.4848 18.1847 1.36798 18.1023 1.27909C18.0199 1.19021 17.9069 1.13586 17.786 1.127C17.022 1.073 15.53 1 14.458 1C11.51 1 9.59 2.766 9.59 5.977V9.16H6.23C6.16697 9.16 6.10455 9.17242 6.04631 9.19654C5.98808 9.22066 5.93516 9.25602 5.89059 9.30059C5.84602 9.34516 5.81066 9.39808 5.78654 9.45631C5.76242 9.51455 5.75 9.57697 5.75 9.64V13C5.75 13.063 5.76242 13.1255 5.78654 13.1837C5.81066 13.2419 5.84602 13.2948 5.89059 13.3394C5.93516 13.384 5.98808 13.4193 6.04631 13.4435C6.10455 13.4676 6.16697 13.48 6.23 13.48H9.59V22.6C9.59 22.7273 9.64057 22.8494 9.73059 22.9394C9.82061 23.0294 9.9427 23.08 10.07 23.08H13.43C13.5573 23.08 13.6794 23.0294 13.7694 22.9394C13.8594 22.8494 13.91 22.7273 13.91 22.6V13.48H17.377C17.4951 13.48 17.6091 13.4364 17.6971 13.3576C17.7851 13.2789 17.841 13.1704 17.854 13.053L18.227 9.693C18.2345 9.62591 18.2277 9.55801 18.2071 9.49372C18.1865 9.42943 18.1526 9.3702 18.1076 9.3199C18.0626 9.2696 18.0075 9.22936 17.9459 9.20181C17.8842 9.17425 17.8175 9.16001 17.75 9.16H13.91V6.76C13.91 6.37809 14.0617 6.01182 14.3318 5.74177C14.6018 5.47171 14.9681 5.32 15.35 5.32V5.32Z" fill="#242841"/>
</svg>
