<svg width="48" height="49" viewBox="0 0 48 49" fill="none" xmlns="http://www.w3.org/2000/svg">
<path d="M10.667 0.333013C9.95975 0.333278 9.28154 0.614349 8.78144 1.11445C8.28134 1.61455 8.00027 2.29276 8 3.00001V5.66701H5.333C3.9199 5.67123 2.56588 6.23446 1.56666 7.23367C0.567444 8.23289 0.0042206 9.58691 0 11V43C0.0042206 44.4131 0.567444 45.7671 1.56666 46.7663C2.56588 47.7656 3.9199 48.3288 5.333 48.333H42.667C44.0801 48.3288 45.4341 47.7656 46.4333 46.7663C47.4326 45.7671 47.9958 44.4131 48 43V11C47.9958 9.58691 47.4326 8.23289 46.4333 7.23367C45.4341 6.23446 44.0801 5.67123 42.667 5.66701H40V3.00001C40.0069 2.6455 39.943 2.29317 39.812 1.96365C39.6811 1.63412 39.4858 1.33401 39.2375 1.08086C38.9892 0.827722 38.693 0.626632 38.366 0.489355C38.0391 0.352078 37.6881 0.281372 37.3335 0.281372C36.9789 0.281372 36.6279 0.352078 36.301 0.489355C35.974 0.626632 35.6778 0.827722 35.4295 1.08086C35.1812 1.33401 34.9859 1.63412 34.8549 1.96365C34.724 2.29317 34.6601 2.6455 34.667 3.00001V5.66701H13.333V3.00001C13.3327 2.29293 13.0518 1.61488 12.5519 1.1148C12.052 0.614731 11.3741 0.333543 10.667 0.333013ZM5.333 13.666H42.667V40.333C42.6667 41.0403 42.3857 41.7185 41.8856 42.2186C41.3855 42.7187 40.7073 42.9997 40 43H8C7.29275 42.9997 6.61454 42.7187 6.11444 42.2186C5.61434 41.7185 5.33327 41.0403 5.333 40.333V13.666Z" fill="white"/>
<path d="M17 19.333H9V27.333H17V19.333Z" fill="white"/>
<path d="M17 30.333H9V38.333H17V30.333Z" fill="white"/>
<path d="M28 19.333H20V27.333H28V19.333Z" fill="white"/>
<path d="M28 30.333H20V38.333H28V30.333Z" fill="white"/>
<path d="M39 19.333H31V27.333H39V19.333Z" fill="white"/>
<path d="M39 30.333H31V38.333H39V30.333Z" fill="white"/>
</svg>
