<svg width="24" height="24" viewBox="0 0 24 24" fill="none" xmlns="http://www.w3.org/2000/svg">
<path d="M21.736 7.0152C21.6158 6.49831 21.3475 6.02771 20.9638 5.66108C20.5801 5.29446 20.0978 5.04775 19.576 4.9512C17.0386 4.5283 14.4681 4.33552 11.896 4.3752C9.30831 4.3361 6.72231 4.52887 4.16901 4.9512C3.64391 5.03993 3.15746 5.284 2.77244 5.65191C2.38742 6.01982 2.1215 6.49468 2.00901 7.0152C1.74618 8.6822 1.61777 10.3676 1.62501 12.0552C1.6053 13.7452 1.74964 15.4331 2.05601 17.0952C2.17675 17.6118 2.44531 18.0821 2.82888 18.4486C3.21245 18.8151 3.69444 19.062 4.21601 19.1592C6.77048 19.5774 9.35677 19.7701 11.945 19.7352C14.5332 19.7701 17.1195 19.5774 19.674 19.1592C20.199 19.0702 20.6853 18.8261 21.0703 18.4582C21.4553 18.0903 21.7213 17.6156 21.834 17.0952C22.1094 15.4282 22.2698 13.7442 22.314 12.0552C22.2487 10.363 22.0554 8.67823 21.736 7.0152V7.0152ZM9.30501 15.4152V8.6952L15.161 12.0552L9.30501 15.4152Z" fill="#FF0000"/>
</svg>
