<svg xmlns="http://www.w3.org/2000/svg" xmlns:xlink="http://www.w3.org/1999/xlink" viewBox="0 0 50 40">
  <defs>
    <style>
      .cls-1 {
        clip-path: url(#clip-ic-upload-cloud);
      }

      .cls-2 {
        fill: #a1abba;
      }
    </style>
    <clipPath id="clip-ic-upload-cloud">
      <rect width="50" height="40"/>
    </clipPath>
  </defs>
  <g id="ic-upload-cloud" class="cls-1">
    <g id="surface1" transform="translate(0 -4.531)">
      <path id="Path_14" data-name="Path 14" class="cls-2" d="M29,4.531a13.071,13.071,0,0,0-11.75,7.531,6.884,6.884,0,0,0-3.906-1.344,6.953,6.953,0,0,0-6.906,6.625A9.6,9.6,0,0,0,9.656,36H18a1,1,0,1,0,0-2H9.656A7.67,7.67,0,0,1,7.625,18.938a1,1,0,0,0,.719-1c0-.141,0-.211,0-.219a5.016,5.016,0,0,1,8.563-3.531,1,1,0,0,0,1.625-.344,11.154,11.154,0,0,1,21.625,3.844,10.989,10.989,0,0,1-.094,1.375,1,1,0,0,0,.969,1.125h.063a6.906,6.906,0,0,1,0,13.813H32a1,1,0,1,0,0,2h9.094A8.922,8.922,0,0,0,50,27.094a8.815,8.815,0,0,0-7.906-8.687c.016-.242.063-.469.063-.719A13.177,13.177,0,0,0,29,4.531ZM25,21.594l-.719.688-5,5a1.016,1.016,0,0,0,1.438,1.438L24,25.438V43a1,1,0,1,0,2,0V25.438l3.281,3.281a1.016,1.016,0,0,0,1.438-1.437l-5-5Z"/>
    </g>
  </g>
</svg>
