<svg width="24" height="24" viewBox="0 0 24 24" fill="none" xmlns="http://www.w3.org/2000/svg">
<path d="M21.484 13.26C21.6891 11.8011 21.5526 10.3146 21.0853 8.9175C20.6179 7.52042 19.8324 6.25099 18.7907 5.20928C17.749 4.16758 16.4795 3.38207 15.0825 2.91469C13.6854 2.4473 12.1988 2.31081 10.74 2.51598C9.59493 1.80932 8.24491 1.50977 6.90844 1.66582C5.57197 1.82187 4.32727 2.42438 3.37583 3.37583C2.42438 4.32727 1.82187 5.57197 1.66582 6.90844C1.50977 8.24491 1.80932 9.59493 2.51598 10.74C2.31081 12.1988 2.4473 13.6854 2.91469 15.0825C3.38207 16.4795 4.16758 17.749 5.20928 18.7907C6.25099 19.8324 7.52042 20.6179 8.9175 21.0853C10.3146 21.5526 11.8011 21.6891 13.26 21.484C14.405 22.1906 15.755 22.4902 17.0915 22.3341C18.428 22.1781 19.6727 21.5756 20.6241 20.6241C21.5756 19.6727 22.1781 18.428 22.3341 17.0915C22.4902 15.755 22.1906 14.405 21.484 13.26V13.26ZM12.119 17.586C9.00998 17.586 7.22398 15.956 7.22398 14.357C7.22398 13.541 8.07798 13.28 8.42398 13.28C8.69677 13.2924 8.95892 13.3895 9.17398 13.5578C9.38904 13.7261 9.54633 13.9572 9.62398 14.219C9.76928 14.7066 10.0845 15.1261 10.5125 15.4013C10.9405 15.6765 11.453 15.7892 11.957 15.719C12.628 15.782 14.204 15.486 14.204 14.335C14.204 14.225 14.377 13.476 13.017 13.105C11.7792 12.8322 10.5568 12.4937 9.35498 12.091C8.80382 11.9148 8.32324 11.5673 7.98315 11.0992C7.64306 10.631 7.46118 10.0666 7.46398 9.48798C7.46398 8.88198 7.77398 6.41398 11.974 6.41398C14.774 6.41398 16.274 7.84998 16.274 9.11398C16.273 9.25924 16.243 9.40284 16.1856 9.53629C16.1283 9.66975 16.0447 9.79035 15.94 9.89098C15.7377 10.0861 15.4743 10.2053 15.1943 10.2287C14.9142 10.252 14.6347 10.1779 14.403 10.019C14.1956 9.84362 14.0293 9.62478 13.916 9.37798C13.71 9.00198 13.373 8.27798 11.823 8.27798C10.323 8.27798 9.90098 8.99498 9.90098 9.29498C9.90098 10.301 11.82 10.512 12.336 10.645C14.218 11.13 16.778 11.576 16.778 14.113C16.775 17.025 13.744 17.587 12.119 17.587V17.586Z" fill="#03A9F4"/>
</svg>
