<svg width="24" height="24" viewBox="0 0 24 24" fill="none" xmlns="http://www.w3.org/2000/svg">
<path d="M16.8892 23H7.11179C5.49153 22.9983 3.93821 22.3542 2.79241 21.2086C1.64661 20.063 1.00194 18.5094 1 16.8892V7.11175C1.00194 5.49149 1.64661 3.93796 2.79241 2.79236C3.93821 1.64676 5.49153 1.00264 7.11179 1.00098H16.8892C18.5093 1.00292 20.0625 1.64731 21.2081 2.79288C22.3537 3.93845 22.9981 5.49167 23 7.11175V16.8892C22.9983 18.5093 22.354 20.0629 21.2084 21.2086C20.0627 22.3542 18.5094 22.9983 16.8892 23V23ZM8.33333 3.44508C7.03723 3.44647 5.79451 3.96201 4.87793 4.87839C3.96135 5.79478 3.44577 7.03719 3.4441 8.33329V15.6666C3.44577 16.9627 3.96135 18.2051 4.87793 19.1215C5.79451 20.0379 7.03723 20.5534 8.33333 20.5548H15.6667C16.9627 20.5534 18.2051 20.0379 19.1216 19.1215C20.038 18.2051 20.5535 16.9626 20.5549 15.6666V8.33329C20.5535 7.03728 20.038 5.79481 19.1216 4.87839C18.2051 3.96198 16.9627 3.44647 15.6667 3.44508H8.33333ZM15.6667 19.3333H8.33333C7.36087 19.3333 6.42826 18.9472 5.74063 18.2596C5.053 17.5719 4.66667 16.6391 4.66667 15.6666V8.33329C4.66667 7.36083 5.053 6.42796 5.74063 5.74033C6.42826 5.05269 7.36087 4.66662 8.33333 4.66662H15.6667C16.6391 4.66662 17.5717 5.05269 18.2594 5.74033C18.947 6.42796 19.3333 7.36083 19.3333 8.33329V15.6666C19.3333 16.6391 18.947 17.5719 18.2594 18.2596C17.5717 18.9472 16.6391 19.3333 15.6667 19.3333V19.3333ZM12 7.72252C11.4366 7.71649 10.8776 7.82326 10.3559 8.03609C9.83425 8.24891 9.36041 8.56356 8.96201 8.96196C8.5636 9.36036 8.2487 9.8342 8.03588 10.3559C7.82305 10.8776 7.71653 11.4366 7.72256 12C7.71653 12.5633 7.82305 13.1223 8.03588 13.644C8.2487 14.1657 8.5636 14.6395 8.96201 15.0379C9.36041 15.4364 9.83425 15.751 10.3559 15.9638C10.8776 16.1766 11.4366 16.2834 12 16.2774C12.5634 16.2834 13.1224 16.1766 13.6441 15.9638C14.1658 15.751 14.6396 15.4364 15.038 15.0379C15.4364 14.6395 15.7513 14.1657 15.9641 13.644C16.1769 13.1223 16.2835 12.5633 16.2774 12C16.2835 11.4366 16.1769 10.8776 15.9641 10.3559C15.7513 9.8342 15.4364 9.36036 15.038 8.96196C14.6396 8.56356 14.1658 8.24891 13.6441 8.03609C13.1224 7.82326 12.5634 7.71649 12 7.72252V7.72252ZM16.2774 6.49995C16.196 6.49524 16.1145 6.50776 16.0383 6.53678C15.9621 6.56581 15.8926 6.61056 15.835 6.66825C15.7773 6.72593 15.7325 6.79509 15.7035 6.87133C15.6745 6.94757 15.6619 7.02928 15.6667 7.11072C15.6619 7.19216 15.6745 7.27388 15.7035 7.35012C15.7325 7.42636 15.7773 7.49552 15.835 7.5532C15.8926 7.61088 15.9621 7.65564 16.0383 7.68466C16.1145 7.71369 16.196 7.72621 16.2774 7.72149C16.359 7.72637 16.4405 7.71413 16.5168 7.68518C16.5932 7.65622 16.6626 7.61141 16.7204 7.55371C16.7782 7.49601 16.8233 7.42644 16.8524 7.35012C16.8815 7.27381 16.894 7.19226 16.8892 7.11072C16.894 7.02919 16.8815 6.94764 16.8524 6.87133C16.8233 6.79501 16.7782 6.72544 16.7204 6.66774C16.6626 6.61004 16.5932 6.56523 16.5168 6.53627C16.4405 6.50732 16.359 6.49508 16.2774 6.49995V6.49995ZM12 15.0559C11.5975 15.0602 11.1982 14.9844 10.8255 14.8323C10.4529 14.6803 10.1144 14.455 9.82982 14.1704C9.54527 13.8857 9.32033 13.5472 9.16841 13.1744C9.01649 12.8017 8.94064 12.4024 8.94513 12C8.94064 11.5975 9.01649 11.1982 9.16841 10.8255C9.32033 10.4528 9.54527 10.1142 9.82982 9.82952C10.1144 9.54487 10.4529 9.31964 10.8255 9.1676C11.1982 9.01555 11.5975 8.93971 12 8.94406C12.4025 8.93971 12.8018 9.01556 13.1745 9.1676C13.5472 9.31963 13.8858 9.54488 14.1704 9.82952C14.4551 10.1142 14.6801 10.4528 14.8321 10.8255C14.9841 11.1982 15.0602 11.5974 15.0559 12C15.0602 12.4025 14.9841 12.8017 14.8321 13.1744C14.6801 13.5472 14.4551 13.8858 14.1704 14.1704C13.8858 14.455 13.5472 14.6803 13.1745 14.8323C12.8018 14.9843 12.4025 15.0602 12 15.0559Z" fill="#242841"/>
</svg>
