<svg width="24" height="24" viewBox="0 0 24 24" fill="none" xmlns="http://www.w3.org/2000/svg">
<path d="M16.889 23H7.11098C5.49171 22.9953 3.94011 22.3499 2.7951 21.2049C1.65009 20.0599 1.00473 18.5083 0.999985 16.889V7.111C1.00473 5.49172 1.65009 3.94012 2.7951 2.79512C3.94011 1.65011 5.49171 1.00475 7.11098 1H16.889C18.5083 1.00475 20.0599 1.65011 21.2049 2.79512C22.3499 3.94012 22.9952 5.49172 23 7.111V16.889C22.9952 18.5083 22.3499 20.0599 21.2049 21.2049C20.0599 22.3499 18.5083 22.9953 16.889 23V23Z" fill="#304FFE"/>
<path d="M0.99998 7.11111V16.8891C1.00473 18.5084 1.65009 20.06 2.7951 21.205C3.9401 22.35 5.4917 22.9954 7.11098 23.0001H16.889C18.5083 22.9954 20.0599 22.35 21.2049 21.205C22.3499 20.06 22.9952 18.5084 23 16.8891V7.11111C23.0133 6.53124 22.9309 5.95314 22.756 5.40011C19.184 2.54106 14.7422 0.988599 10.167 1.00011C7.94064 0.992508 5.7293 1.3645 3.62798 2.10011C2.81661 2.65983 2.15345 3.40839 1.69565 4.28133C1.23784 5.15427 0.999094 6.12541 0.99998 7.11111V7.11111Z" fill="#304FFE" fill-opacity="0.29"/>
<path d="M10.167 2.22222C7.24435 2.23191 4.36153 2.90049 1.73298 4.17822C1.24809 5.07955 0.996129 6.08775 0.999983 7.11122V16.8892C1.00473 18.5085 1.65009 20.0601 2.7951 21.2051C3.94011 22.3501 5.4917 22.9955 7.11098 23.0002H16.889C18.5083 22.9955 20.0599 22.3501 21.2049 21.2051C22.3499 20.0601 22.9952 18.5085 23 16.8892V7.23322C19.5093 4.00106 14.9242 2.21068 10.167 2.22222V2.22222Z" fill="#6200EA"/>
<path d="M23 8.94411C21.3436 7.20779 19.3524 5.82522 17.1467 4.87991C14.9411 3.9346 12.5667 3.44617 10.167 3.44411C6.98023 3.43933 3.85282 4.3059 1.12298 5.95011C1.04862 6.33285 1.00747 6.72129 0.999985 7.11111V16.8891C1.00473 18.5084 1.65009 20.06 2.7951 21.205C3.94011 22.35 5.49171 22.9954 7.11098 23.0001H16.889C18.5084 22.9954 20.0602 22.3499 21.2052 21.2046C22.3503 20.0594 22.9955 18.5076 23 16.8881V8.94411Z" fill="#673AB7"/>
<path d="M23 10.7781C21.4552 8.86331 19.5 7.32006 17.2788 6.26233C15.0576 5.20461 12.6272 4.65943 10.167 4.66707C6.8982 4.6611 3.70353 5.64072 0.999985 7.47807V16.8891C1.00473 18.5083 1.65009 20.0599 2.7951 21.205C3.94011 22.35 5.49171 22.9953 7.11098 23.0001H16.889C18.5083 22.9953 20.0599 22.35 21.2049 21.205C22.3499 20.0599 22.9952 18.5083 23 16.8891V10.7781Z" fill="#8E24AA"/>
<path d="M23 16.8891V12.8561C21.8592 11.0988 20.3695 9.5946 18.6233 8.43684C16.8771 7.27908 14.9116 6.49245 12.8488 6.12574C10.786 5.75903 8.66988 5.82006 6.63164 6.30505C4.59341 6.79004 2.67656 7.68864 0.999985 8.94512V16.8891C1.00473 18.5084 1.65009 20.06 2.7951 21.205C3.94011 22.35 5.49171 22.9954 7.11098 23.0001H16.889C18.5083 22.9954 20.0599 22.35 21.2049 21.205C22.3499 20.06 22.9952 18.5084 23 16.8891Z" fill="#C2185B"/>
<path d="M23 16.889V15.422C22.1067 13.4223 20.7578 11.6593 19.0612 10.2742C17.3646 8.8891 15.3675 7.92022 13.2294 7.44509C11.0914 6.96996 8.87185 7.00177 6.74831 7.53796C4.62477 8.07415 2.65618 9.09985 0.999985 10.533V16.889C1.00473 18.5083 1.65009 20.0599 2.7951 21.2049C3.94011 22.3499 5.49171 22.9953 7.11098 23H16.889C18.5083 22.9953 20.0599 22.3499 21.2049 21.2049C22.3499 20.0599 22.9952 18.5083 23 16.889V16.889Z" fill="#D81B60"/>
<path d="M22.756 18.6001C22.288 16.3171 21.2078 14.2044 19.631 12.4882C18.0543 10.7721 16.0405 9.51714 13.8052 8.85783C11.5699 8.19852 9.19731 8.15967 6.94162 8.74544C4.68593 9.33121 2.63206 10.5195 0.999985 12.1831V16.8891C1.00473 18.5084 1.65009 20.06 2.7951 21.205C3.94011 22.35 5.49171 22.9954 7.11098 23.0001H16.889C18.2118 23.002 19.4993 22.5739 20.5575 21.7802C21.6158 20.9866 22.3873 19.8705 22.756 18.6001V18.6001Z" fill="#F50057"/>
<path d="M21.717 20.5561C21.6023 18.1914 20.7643 15.9189 19.3163 14.0459C17.8683 12.1728 15.8801 10.7895 13.6205 10.083C11.3609 9.37641 8.93887 9.38067 6.68178 10.0952C4.42468 10.8097 2.44138 12.2 0.999985 14.0781V16.8891C1.00473 18.5084 1.65009 20.06 2.7951 21.205C3.94011 22.35 5.49171 22.9954 7.11098 23.0001H16.889C17.8279 22.9934 18.7524 22.7693 19.5901 22.3453C20.4278 21.9212 21.1558 21.3088 21.717 20.5561V20.5561Z" fill="#FF1744"/>
<path d="M10.167 10.7781C8.28329 10.7746 6.43429 11.2848 4.81902 12.2539C3.20374 13.2231 1.88336 14.6144 0.999985 16.2781V16.8891C1.00473 18.5084 1.65009 20.06 2.7951 21.205C3.94011 22.35 5.49171 22.9953 7.11098 23.0001H16.889C18.195 23.0168 19.4673 22.5855 20.494 21.7781C20.494 21.5951 20.555 21.3501 20.555 21.1671C20.5562 19.8025 20.2883 18.4511 19.7667 17.1902C19.2451 15.9293 18.4799 14.7836 17.5151 13.8187C16.5503 12.8537 15.4046 12.0885 14.1438 11.5668C12.8829 11.0451 11.5315 10.777 10.167 10.7781V10.7781Z" fill="#FF5722"/>
<path d="M10.167 12.0001C8.13918 11.9928 6.16684 12.6619 4.56198 13.9014C2.95712 15.141 1.81137 16.8802 1.30598 18.8441C1.71138 20.0608 2.49135 21.1182 3.53424 21.8647C4.57713 22.6112 5.82947 23.0086 7.11198 23.0001H16.89C17.6893 22.9974 18.4795 22.831 19.212 22.5111C19.2829 22.0663 19.3236 21.6173 19.334 21.1671C19.3357 19.9627 19.0998 18.7699 18.6397 17.657C18.1796 16.544 17.5044 15.5328 16.6528 14.6812C15.8013 13.8296 14.79 13.1544 13.6771 12.6944C12.5641 12.2343 11.3713 11.9983 10.167 12.0001V12.0001Z" fill="#FF6F00"/>
<path d="M10.166 13.2221C8.16448 13.2079 6.23327 13.9594 4.76776 15.3226C3.30225 16.6859 2.41332 18.5578 2.28298 20.5551C2.84419 21.3078 3.5722 21.9202 4.40988 22.3443C5.24756 22.7683 6.17211 22.9925 7.11098 22.9991H16.889C17.2382 22.9887 17.5858 22.9479 17.928 22.8771C18.0525 22.3154 18.1138 21.7415 18.111 21.1661C18.113 20.1223 17.9088 19.0883 17.5102 18.1235C17.1116 17.1587 16.5265 16.2822 15.7883 15.5441C15.0501 14.806 14.1735 14.221 13.2087 13.8225C12.2438 13.424 11.2098 13.22 10.166 13.2221V13.2221Z" fill="#FF9800"/>
<path d="M16.644 23.0001C16.8149 22.4044 16.8971 21.7867 16.888 21.1671C16.888 19.3843 16.1798 17.6745 14.9192 16.4139C13.6585 15.1533 11.9488 14.4451 10.166 14.4451C8.38319 14.4451 6.67343 15.1533 5.41281 16.4139C4.15219 17.6745 3.44398 19.3843 3.44398 21.1671C3.43396 21.3726 3.45452 21.5785 3.50498 21.7781C4.55042 22.5509 5.81106 22.9781 7.11098 23.0001H16.644Z" fill="#FFC107"/>
<path d="M10.167 15.667C9.44386 15.664 8.7273 15.8042 8.05863 16.0795C7.38997 16.3548 6.78244 16.7598 6.27111 17.2712C5.75978 17.7825 5.35477 18.39 5.07945 19.0587C4.80413 19.7274 4.66394 20.4439 4.66699 21.167C4.66362 21.6419 4.72519 22.1149 4.84999 22.573C5.56525 22.8728 6.33563 23.0187 7.11099 23.001H15.361C15.5616 22.4103 15.665 21.7909 15.667 21.167C15.67 20.4439 15.5298 19.7274 15.2545 19.0587C14.9792 18.39 14.5742 17.7825 14.0629 17.2712C13.5515 16.7598 12.944 16.3548 12.2753 16.0795C11.6067 15.8042 10.8901 15.664 10.167 15.667Z" fill="#FFD54F"/>
<path d="M10.167 16.95C9.60418 16.9465 9.04628 17.0547 8.52563 17.2684C8.00498 17.4821 7.53195 17.7971 7.13398 18.195C6.73602 18.593 6.42104 19.066 6.20732 19.5867C5.9936 20.1073 5.88539 20.6652 5.88898 21.228C5.88676 21.8181 6.01194 22.4018 6.25598 22.939C6.53833 22.9898 6.82529 23.0102 7.11198 23H14.079C14.3232 22.4413 14.4482 21.8378 14.446 21.228C14.4496 20.6652 14.3413 20.1072 14.1275 19.5865C13.9138 19.0657 13.5987 18.5927 13.2006 18.1947C12.8026 17.7967 12.3294 17.4818 11.8086 17.2681C11.2879 17.0544 10.7299 16.9463 10.167 16.95V16.95Z" fill="#FFE082"/>
<path d="M10.167 18.172C9.76455 18.168 9.36536 18.2443 8.99277 18.3965C8.62019 18.5486 8.28171 18.7736 7.99713 19.0582C7.71255 19.3428 7.4876 19.6812 7.33544 20.0538C7.18328 20.4264 7.10697 20.8256 7.11098 21.228C7.1171 21.8693 7.33155 22.4912 7.72198 23H12.611C13.0014 22.4912 13.2159 21.8693 13.222 21.228C13.226 20.8257 13.1497 20.4266 12.9976 20.0541C12.8455 19.6815 12.6207 19.3431 12.3362 19.0585C12.0517 18.774 11.7133 18.549 11.3409 18.3968C10.9684 18.2446 10.5693 18.1681 10.167 18.172Z" fill="#FFECB3"/>
<path d="M15.666 20.5551H8.33298C7.03723 20.5522 5.79539 20.0362 4.87915 19.1199C3.96291 18.2037 3.44689 16.9618 3.44398 15.6661V8.33309C3.44689 7.03734 3.96291 5.79549 4.87915 4.87926C5.79539 3.96302 7.03723 3.447 8.33298 3.44409H15.666C16.9617 3.447 18.2036 3.96302 19.1198 4.87926C20.0361 5.79549 20.5521 7.03734 20.555 8.33309V15.6661C20.5521 16.9618 20.0361 18.2037 19.1198 19.1199C18.2036 20.0362 16.9617 20.5522 15.666 20.5551ZM8.33298 4.66609C7.36125 4.66873 6.43006 5.05592 5.74294 5.74305C5.05582 6.43017 4.66862 7.36135 4.66599 8.33309V15.6661C4.66862 16.6378 5.05582 17.569 5.74294 18.2561C6.43006 18.9433 7.36125 19.3305 8.33298 19.3331H15.666C16.6377 19.3305 17.5689 18.9433 18.256 18.2561C18.9432 17.569 19.3303 16.6378 19.333 15.6661V8.33309C19.3303 7.36135 18.9432 6.43017 18.256 5.74305C17.5689 5.05592 16.6377 4.66873 15.666 4.66609H8.33298Z" fill="white"/>
<path d="M12 16.2782C11.1539 16.2782 10.3268 16.0273 9.62325 15.5572C8.91974 15.0871 8.37141 14.419 8.04762 13.6373C7.72383 12.8556 7.63911 11.9954 7.80418 11.1656C7.96925 10.3357 8.37669 9.57345 8.97498 8.97517C9.57326 8.37688 10.3355 7.96944 11.1654 7.80437C11.9952 7.6393 12.8554 7.72402 13.6371 8.04781C14.4188 8.3716 15.0869 8.91993 15.557 9.62344C16.0271 10.327 16.278 11.1541 16.278 12.0002C16.2816 12.563 16.1734 13.1209 15.9596 13.6415C15.7459 14.1622 15.4309 14.6352 15.033 15.0332C14.635 15.4311 14.162 15.7461 13.6413 15.9598C13.1207 16.1736 12.5628 16.2818 12 16.2782V16.2782ZM12 8.94517C11.3956 8.94517 10.8047 9.1244 10.3022 9.4602C9.7996 9.796 9.4079 10.2733 9.1766 10.8317C8.9453 11.3901 8.88478 12.0046 9.0027 12.5974C9.12061 13.1902 9.41167 13.7347 9.83906 14.1621C10.2665 14.5895 10.811 14.8805 11.4038 14.9984C11.9966 15.1164 12.611 15.0558 13.1695 14.8245C13.7279 14.5932 14.2052 14.2015 14.541 13.699C14.8767 13.1964 15.056 12.6056 15.056 12.0012C15.0601 11.5987 14.9839 11.1994 14.8318 10.8267C14.6797 10.454 14.4548 10.1153 14.1702 9.83066C13.8856 9.54598 13.5471 9.32094 13.1744 9.16872C12.8018 9.0165 12.4025 8.94016 12 8.94417V8.94517Z" fill="white"/>
<path d="M16.889 7.11109C16.889 7.23193 16.8532 7.35007 16.786 7.45054C16.7189 7.55102 16.6235 7.62934 16.5118 7.67558C16.4002 7.72183 16.2773 7.73393 16.1588 7.71035C16.0403 7.68677 15.9314 7.62858 15.8459 7.54313C15.7605 7.45768 15.7023 7.34881 15.6787 7.23029C15.6551 7.11177 15.6672 6.98892 15.7135 6.87727C15.7597 6.76562 15.8381 6.6702 15.9385 6.60306C16.039 6.53592 16.1571 6.50009 16.278 6.50009C16.3595 6.49513 16.4412 6.50753 16.5176 6.53648C16.5939 6.56543 16.6633 6.61026 16.7211 6.66802C16.7788 6.72578 16.8236 6.79514 16.8526 6.87152C16.8815 6.9479 16.8939 7.02956 16.889 7.11109V7.11109Z" fill="white"/>
</svg>
