<svg width="64" height="64" viewBox="0 0 64 64" fill="none" xmlns="http://www.w3.org/2000/svg">
<path d="M18.667 8.33301C17.9597 8.33328 17.2815 8.61435 16.7814 9.11445C16.2813 9.61455 16.0003 10.2928 16 11V13.667H13.333C11.9199 13.6712 10.5659 14.2345 9.56666 15.2337C8.56744 16.2329 8.00422 17.5869 8 19V51C8.00422 52.4131 8.56744 53.7671 9.56666 54.7663C10.5659 55.7656 11.9199 56.3288 13.333 56.333H50.667C52.0801 56.3288 53.4341 55.7656 54.4333 54.7663C55.4326 53.7671 55.9958 52.4131 56 51V19C55.9958 17.5869 55.4326 16.2329 54.4333 15.2337C53.4341 14.2345 52.0801 13.6712 50.667 13.667H48V11C48.0069 10.6455 47.943 10.2932 47.812 9.96365C47.6811 9.63412 47.4858 9.33401 47.2375 9.08086C46.9892 8.82772 46.693 8.62663 46.366 8.48936C46.0391 8.35208 45.6881 8.28137 45.3335 8.28137C44.9789 8.28137 44.6279 8.35208 44.301 8.48936C43.974 8.62663 43.6778 8.82772 43.4295 9.08086C43.1812 9.33401 42.9859 9.63412 42.8549 9.96365C42.724 10.2932 42.6601 10.6455 42.667 11V13.667H21.333V11C21.3327 10.2929 21.0518 9.61488 20.5519 9.1148C20.052 8.61473 19.3741 8.33354 18.667 8.33301ZM13.333 21.666H50.667V48.333C50.6667 49.0403 50.3857 49.7185 49.8856 50.2186C49.3855 50.7187 48.7073 50.9997 48 51H16C15.2927 50.9997 14.6145 50.7187 14.1144 50.2186C13.6143 49.7185 13.3333 49.0403 13.333 48.333V21.666Z" fill="#242841"/>
<path d="M25 27.333H17V35.333H25V27.333Z" fill="#707C93"/>
<path d="M25 38.333H17V46.333H25V38.333Z" fill="#707C93"/>
<path d="M36 27.333H28V35.333H36V27.333Z" fill="#707C93"/>
<path d="M36 38.333H28V46.333H36V38.333Z" fill="#707C93"/>
<path d="M47 27.333H39V35.333H47V27.333Z" fill="#707C93"/>
<path d="M47 38.333H39V46.333H47V38.333Z" fill="#707C93"/>
</svg>
