<svg width="33" height="28" viewBox="0 0 33 28" fill="none" xmlns="http://www.w3.org/2000/svg">
<path d="M13.034 5.00002C11.1719 4.9965 9.35442 5.56956 7.83109 6.64051C6.30777 7.71145 5.15337 9.22774 4.52643 10.9811C3.89949 12.7345 3.83077 14.639 4.3297 16.433C4.82864 18.227 5.87075 19.8226 7.31292 21.0005C8.75509 22.1785 10.5266 22.8811 12.3841 23.0118C14.2416 23.1425 16.094 22.6949 17.6869 21.7305C19.2799 20.7661 20.5351 19.3322 21.2804 17.6257C22.0256 15.9193 22.2243 14.0239 21.849 12.2L21.799 12H13.034V15H19.034C18.7784 16.4044 18.0375 17.6744 16.9409 18.5883C15.8443 19.5021 14.4615 20.0018 13.034 20C12.0655 20.0008 11.1111 19.7672 10.2524 19.319C9.3938 18.8708 8.65644 18.2213 8.10335 17.4262C7.55026 16.6311 7.19789 15.7139 7.07635 14.7529C6.95481 13.792 7.0677 12.8159 7.40539 11.9081C7.74309 11.0003 8.29553 10.1878 9.01553 9.5399C9.73553 8.89201 10.6017 8.42807 11.54 8.18771C12.4782 7.94734 13.4608 7.9377 14.4036 8.15961C15.3464 8.38152 16.2215 8.82839 16.954 9.46202L19.109 7.36202C17.4525 5.83976 15.2838 4.99656 13.034 5.00002V5.00002ZM27.034 9.00002V12H24.034V14H27.034V17H29.034V14H32.034V12H29.034V9.00002H27.034Z" fill="#DD4B39"/>
</svg>
