<svg width="29" height="28" viewBox="0 0 29 28" fill="none" xmlns="http://www.w3.org/2000/svg">
<path d="M9.03404 5.00002C7.17194 4.9965 5.35442 5.56956 3.83109 6.64051C2.30777 7.71145 1.15337 9.22774 0.526431 10.9811C-0.100507 12.7345 -0.169229 14.639 0.329703 16.433C0.828635 18.227 1.87075 19.8226 3.31292 21.0005C4.75509 22.1785 6.52658 22.8811 8.38409 23.0118C10.2416 23.1425 12.094 22.6949 13.6869 21.7305C15.2799 20.7661 16.5351 19.3322 17.2804 17.6257C18.0256 15.9193 18.2243 14.0239 17.849 12.2L17.799 12H9.03404V15H15.034C14.7784 16.4044 14.0375 17.6744 12.9409 18.5883C11.8443 19.5021 10.4615 20.0018 9.03404 20C8.06546 20.0008 7.11108 19.7672 6.25244 19.319C5.3938 18.8708 4.65644 18.2213 4.10335 17.4262C3.55026 16.6311 3.19789 15.7139 3.07635 14.7529C2.95481 13.792 3.0677 12.8159 3.40539 11.9081C3.74309 11.0003 4.29553 10.1878 5.01553 9.5399C5.73553 8.89201 6.60167 8.42807 7.53995 8.18771C8.47823 7.94734 9.46076 7.9377 10.4036 8.15961C11.3464 8.38152 12.2215 8.82839 12.954 9.46202L15.109 7.36202C13.4525 5.83976 11.2838 4.99656 9.03404 5.00002V5.00002ZM23.034 9.00002V12H20.034V14H23.034V17H25.034V14H28.034V12H25.034V9.00002H23.034Z" fill="white"/>
</svg>
