<svg width="24" height="24" viewBox="0 0 24 24" fill="none" xmlns="http://www.w3.org/2000/svg">
<path d="M22.008 6.03449C21.2199 6.38124 20.3849 6.60938 19.53 6.71149C20.4296 6.17828 21.1048 5.33639 21.43 4.34249C20.583 4.8414 19.657 5.19211 18.692 5.37949C18.0474 4.68292 17.1905 4.21916 16.2548 4.06051C15.3191 3.90186 14.3572 4.05723 13.519 4.5024C12.6808 4.94757 12.0134 5.65753 11.6209 6.52162C11.2284 7.38571 11.1328 8.35538 11.349 9.27949C9.6381 9.19668 7.96349 8.75662 6.43291 7.98762C4.90233 7.21863 3.54968 6.13774 2.462 4.81449C2.07768 5.4664 1.87595 6.20974 1.878 6.96649C1.87893 7.67201 2.05503 8.36625 2.3905 8.98691C2.72596 9.60757 3.21028 10.1352 3.8 10.5225C3.11594 10.5001 2.44668 10.3176 1.846 9.98949V10.0345C1.8476 11.0259 2.1926 11.9861 2.82232 12.7518C3.45203 13.5176 4.32757 14.0415 5.3 14.2345C4.93079 14.3355 4.54978 14.387 4.167 14.3875C3.89447 14.3854 3.6227 14.3586 3.355 14.3075C3.63468 15.1591 4.17262 15.9024 4.8941 16.4343C5.61558 16.9662 6.48479 17.2602 7.381 17.2755C5.84932 18.4644 3.96496 19.1087 2.026 19.1065C1.68302 19.1059 1.34039 19.0845 1 19.0425C2.97638 20.2959 5.2687 20.9608 7.609 20.9595C9.21606 20.9781 10.8108 20.677 12.3005 20.0738C13.7902 19.4706 15.1451 18.5773 16.2865 17.4459C17.4279 16.3144 18.333 14.9674 18.9492 13.483C19.5655 11.9987 19.8805 10.4067 19.876 8.79949C19.876 8.61449 19.869 8.43049 19.86 8.25049C20.7048 7.64859 21.4327 6.89763 22.008 6.03449Z" fill="#E0E4EB"/>
</svg>
